# xmcd
#
# Track frame offsets:
#	150
#	18312
#	39300
#	61412
#	78137
#	98375
#	116025
#	136475
#	161937
#	182150
#	198562
#	218825
#	243425
#	261537
#	280912
#	293825
#	310850
#
# Disc length: 4450 seconds
#
# Revision: 0
# Processed by: cddbd v1.5.2PL0 Copyright (c) Steve Scherf et al.
# Submitted via: EZCDAudioConverter 1.0.4.1
#
DISCID=f7116011
DTITLE=Various Artist - WORLD MUSIC HORIZONS CD 1
DYEAR=1997
DGENRE=World Music
TTITLE0=Kenny G - Theme From Dying Young
TTITLE1=Air Supply - Without You
TTITLE2=小田和正 - 東京愛的故事
TTITLE3=Take That - How Deep Is Your Love
TTITLE4=Az Yet - Last Night
TTITLE5=Yanni - Aria
TTITLE6=張信哲 - 愛如潮水
TTITLE7=林憶蓮 - 寵愛
TTITLE8=Lisa Stansfield - This Is The Right Time
TTITLE9=Elaine Paige - Another Suitcase In Another Hall
TTITLE10=No Mercy - When I Die
TTITLE11=Eros Ramazzotti - L'Aurora
TTITLE12=Qkumba Zoo - The Child Inside
TTITLE13=Elsa - Sous Ma Robe
TTITLE14=Frente - Ordinary Angels
TTITLE15=Ana Belen - Derroche
TTITLE16=Kenny Wen, Ryuichi Sakamoto - A Flower Is Not A Flower
EXTD=
EXTT0=
EXTT1=
EXTT2=
EXTT3=
EXTT4=
EXTT5=
EXTT6=
EXTT7=
EXTT8=
EXTT9=
EXTT10=
EXTT11=
EXTT12=
EXTT13=
EXTT14=
EXTT15=
EXTT16=
PLAYORDER=
